Coordinates
version=1
nRows=10
nColumns=40
inDegrees=yes

Units are S.I. units (second, meters, Newtons, ...)
Angles are in degrees.

endheader
time	pelvis_tilt	pelvis_list	pelvis_rotation	pelvis_tx	pelvis_ty	pelvis_tz	hip_flexion_r	hip_adduction_r	hip_rotation_r	knee_angle_r	knee_angle_r_beta	ankle_angle_r	subtalar_angle_r	mtp_angle_r	hip_flexion_l	hip_adduction_l	hip_rotation_l	knee_angle_l	knee_angle_l_beta	ankle_angle_l	subtalar_angle_l	mtp_angle_l	lumbar_extension	lumbar_bending	lumbar_rotation	arm_flex_r	arm_add_r	arm_rot_r	elbow_flex_r	pro_sup_r	wrist_flex_r	wrist_dev_r	arm_flex_l	arm_add_l	arm_rot_l	elbow_flex_l	pro_sup_l	wrist_flex_l	wrist_dev_l
     43.79328571	     -4.44172442	     -6.45223859	      5.98614224	      1.05212137	      0.92048694	      0.50127257	     -0.60466762	      4.48957055	    -18.94167546	      9.60526673	      9.60526673	     15.23864246	      4.59261406	     -5.54127806	     29.68440047	     -8.04411705	     -0.48126665	     23.43413005	     23.43413005	      3.16150707	     -9.60661063	      4.53086956	     -8.43860702	      5.94021859	      3.19644565	     34.82709307	    -17.64752883	     -8.46267295	     69.54196946	     45.03468830	      0.00000000	      0.00000000	     -5.04974954	     -6.73865953	     -3.86890813	     26.60856886	     45.94304364	      0.00000000	      0.00000000
     43.80657143	     -4.41414355	     -6.43482928	      5.78936921	      1.05312875	      0.92026681	      0.49856127	     -0.92958232	      4.23944210	    -18.67905682	      9.91894475	      9.91894475	     15.46120266	      4.56746698	     -5.52224556	     29.26330822	     -7.86320041	     -0.25228384	     23.87186227	     23.87186227	      3.54410304	     -9.98256994	      4.36790723	     -8.34786594	      5.80647141	      3.08992285	     34.23141929	    -17.40443654	     -8.40210398	     69.47739317	     45.03299447	      0.00000000	      0.00000000	     -4.90666325	     -6.85933730	     -3.89917781	     26.63117441	     45.95107365	      0.00000000	      0.00000000
     43.81985714	     -4.48001532	     -6.32569899	      5.60681169	      1.05372135	      0.92009615	      0.49547350	     -0.70466629	      3.69992652	    -18.41644938	     11.11949525	     11.11949525	     15.98980839	      4.15556342	     -5.04001825	     29.04269018	     -7.46286372	      0.24732964	     24.33892262	     24.33892262	      3.77458373	    -11.16069923	      4.50803990	     -8.24097312	      5.63711569	      3.10540962	     33.44373858	    -17.36185609	     -8.59304995	     69.73478065	     45.03487781	      0.00000000	      0.00000000	     -4.50236144	     -6.95945635	     -4.01946457	     26.56529898	     45.98092344	      0.00000000	      0.00000000
     43.83314286	     -4.38739670	     -6.28307576	      5.47962148	      1.05454505	      0.92052645	      0.49225498	     -1.03665723	      3.37441847	    -18.25190630	     11.50990692	     11.50990692	     16.02191196	      4.13111208	     -4.94464677	     28.63705078	     -7.26123828	      0.34075211	     24.70839716	     24.70839716	      4.25969820	    -11.48621896	      4.32348221	     -8.28064641	      5.54304612	      2.89082582	     32.61790013	    -17.13579967	     -8.55188916	     69.53987549	     45.03764781	      0.00000000	      0.00000000	     -4.18577039	     -7.12295263	     -4.05095916	     26.59916733	     45.99254443	      0.00000000	      0.00000000
     43.84642857	     -4.34327149	     -6.17549807	      5.31595492	      1.05515151	      0.92108291	      0.48883511	     -1.02415694	      2.83942796	    -18.09504166	     12.47623839	     12.47623839	     16.15901442	      3.98545272	     -4.83276145	     28.26497941	     -6.98402888	      0.38053618	     25.00617020	     25.00617020	      4.73887004	    -11.91840820	      4.23911166	     -8.31849671	      5.37959959	      2.81416541	     31.72342195	    -17.10320024	     -8.63320475	     69.25705186	     45.04936602	      0.00000000	      0.00000000	     -3.68030372	     -7.27688480	     -4.09969918	     26.59348786	     46.01119823	      0.00000000	      0.00000000
     43.85971429	     -4.43297584	     -6.05864498	      5.12160271	      1.05551170	      0.92169711	      0.48524902	     -0.63767042	      2.18016035	    -17.99866605	     13.85796725	     13.85796725	     16.33171709	      3.85147729	     -4.68175819	     27.95520192	     -6.69172269	      0.33118506	     25.10712589	     25.10712589	      5.21679674	    -12.25027899	      4.29114790	     -8.22111426	      5.22952210	      2.89906305	     30.62196049	    -17.15424193	     -8.83896315	     68.79798000	     45.07320829	      0.00000000	      0.00000000	     -2.94019985	     -7.34174406	     -4.15016487	     26.47860778	     46.03547307	      0.00000000	      0.00000000
     43.87300000	     -4.34133874	     -6.19021680	      4.98529967	      1.05608252	      0.92282489	      0.48166149	     -0.77936917	      1.94568743	    -17.90675495	     14.49456092	     14.49456092	     15.99394182	      3.83214034	     -4.64422968	     27.47111182	     -6.68822685	      0.28021447	     25.19110266	     25.19110266	      5.74643415	    -12.41842182	      4.13654217	     -8.32582295	      5.34637409	      2.52339315	     29.58782876	    -16.88945093	     -8.76628427	     68.42122399	     45.07933913	      0.00000000	      0.00000000	     -2.44619740	     -7.45192871	     -4.15688967	     26.59106283	     46.04577928	      0.00000000	      0.00000000
     43.88628571	     -4.39205439	     -5.90882419	      4.69582682	      1.05627020	      0.92371115	      0.47787467	      0.03113238	      0.92071649	    -17.72334362	     16.76669657	     16.76669657	     16.05353539	      3.42625316	     -5.05772017	     26.98184244	     -6.34134504	     -0.29925044	     25.11500306	     25.11500306	      6.25064540	    -12.17451801	      4.05721012	     -8.26887658	      5.05897465	      2.82757448	     28.31220462	    -17.09286820	     -8.89467105	     67.41746284	     45.11676097	      0.00000000	      0.00000000	     -1.58371499	     -7.61515021	     -4.20348560	     26.63198617	     46.07053400	      0.00000000	      0.00000000
     43.89957143	     -4.39912121	     -5.88310043	      4.42096648	      1.05650361	      0.92481278	      0.47427705	      0.70317275	      0.24733001	    -17.52389319	     18.74874359	     18.74874359	     15.73153083	      3.05758518	     -5.46455560	     26.46538610	     -6.27448736	     -0.80927855	     25.01675293	     25.01675293	      6.73789048	    -11.87048704	      3.94023221	     -8.23819453	      4.99317100	      2.84318945	     27.03745526	    -17.09858331	     -8.94007687	     66.44289139	     45.14925072	      0.00000000	      0.00000000	     -0.77334817	     -7.74096561	     -4.22662815	     26.70494690	     46.08981936	      0.00000000	      0.00000000
     43.91285714	     -4.47467936	     -5.86034125	      4.07967038	      1.05651406	      0.92581808	      0.47074708	      1.69593123	     -0.48323883	    -17.16567547	     21.11676387	     21.11676387	     15.26589371	      2.45736983	     -6.10768989	     25.96558254	     -6.24252033	     -1.44774350	     24.82776131	     24.82776131	      7.29457795	    -11.32971368	      3.73152392	     -8.25349180	      4.98164981	      2.96695397	     25.75046239	    -17.08001155	     -8.92961640	     65.24941734	     45.18727486	      0.00000000	      0.00000000	      0.05101593	     -7.88598439	     -4.25277123	     26.82310956	     46.10930540	      0.00000000	      0.00000000
